<svg width="72" height="72" viewBox="0 0 72 72" fill="none" xmlns="http://www.w3.org/2000/svg">
<rect width="72" height="72" rx="36" fill="black"/>
<path fill-rule="evenodd" clip-rule="evenodd" d="M31.2576 30.6048V28.7618C30.6179 28.6712 29.9729 28.6242 29.3269 28.6212C21.4271 28.6212 15 35.0493 15 42.9492C15 47.7952 17.4219 52.0849 21.1165 54.6789C18.6426 52.0333 17.2673 48.5461 17.2693 44.9242C17.2693 37.1368 23.5135 30.7866 31.2576 30.6048Z" fill="#00F2EA"/>
<path fill-rule="evenodd" clip-rule="evenodd" d="M31.5952 51.467C35.1198 51.467 37.9952 48.6631 38.1261 45.1687L38.138 13.975H43.8368C43.7151 13.3237 43.6535 12.6626 43.6528 12H35.8698L35.8568 43.1948C35.7269 46.6881 32.8505 49.4909 29.3269 49.4909C28.2691 49.4914 27.2271 49.2336 26.2914 48.7399C26.8956 49.5828 27.6917 50.2697 28.614 50.744C29.5362 51.2182 30.5581 51.466 31.5952 51.467ZM54.4822 24.563V22.8293C52.3878 22.8313 50.3385 22.222 48.5854 21.0762C50.1224 22.8459 52.1908 24.0694 54.4822 24.563Z" fill="#00F2EA"/>
<path fill-rule="evenodd" clip-rule="evenodd" d="M48.5854 21.0751C46.8673 19.1093 45.921 16.5868 45.9221 13.976H43.8368C44.1068 15.4191 44.6669 16.7923 45.4831 18.0125C46.2993 19.2328 47.3547 20.2747 48.5854 21.0751ZM29.3269 36.4053C27.5923 36.4073 25.9293 37.0972 24.7027 38.3238C23.4761 39.5504 22.7861 41.2134 22.7841 42.9481C22.7853 44.1414 23.1125 45.3116 23.7305 46.3324C24.3484 47.3532 25.2336 48.1857 26.2904 48.7399C25.4857 47.6303 25.0524 46.2948 25.0523 44.9241C25.0541 43.1893 25.7439 41.526 26.9705 40.2992C28.1972 39.0724 29.8603 38.3822 31.5952 38.3802C32.2694 38.3802 32.9154 38.4917 33.5258 38.6832V30.7368C32.8862 30.6462 32.2412 30.5992 31.5952 30.5961C31.4816 30.5961 31.3701 30.6026 31.2576 30.6048V36.7083C30.6332 36.5095 29.9822 36.4073 29.3269 36.4053Z" fill="#FF004F"/>
<path fill-rule="evenodd" clip-rule="evenodd" d="M54.4822 24.563V30.6124C50.4456 30.6124 46.7067 29.3213 43.6528 27.1299V42.9481C43.6528 50.848 37.2268 57.275 29.3269 57.275C26.2741 57.275 23.4432 56.3119 21.1165 54.6778C22.4541 56.1204 24.0754 57.2711 25.8785 58.0579C27.6817 58.8446 29.6279 59.2505 31.5952 59.25C39.4951 59.25 45.9221 52.823 45.9221 44.9242V29.106C49.077 31.3745 52.8657 32.5929 56.7515 32.5884V24.8032C55.9723 24.8032 55.2148 24.7199 54.4822 24.563Z" fill="#FF004F"/>
<path fill-rule="evenodd" clip-rule="evenodd" d="M43.6528 42.9481V27.1299C46.8075 29.3988 50.5963 30.6171 54.4822 30.6124V24.563C52.191 24.0688 50.1219 22.845 48.5854 21.0751C47.3547 20.2747 46.2993 19.2328 45.4831 18.0125C44.6669 16.7923 44.1068 15.4191 43.8368 13.976H38.138L38.1261 45.1698C37.9952 48.6631 35.1198 51.467 31.5952 51.467C30.5582 51.4659 29.5363 51.218 28.614 50.7438C27.6918 50.2696 26.8957 49.5827 26.2914 48.7399C25.2345 48.1858 24.3491 47.3534 23.7309 46.3326C23.1128 45.3118 22.7854 44.1415 22.7841 42.9481C22.7861 41.2134 23.4761 39.5504 24.7027 38.3238C25.9293 37.0972 27.5923 36.4073 29.3269 36.4052C30.0001 36.4052 30.6461 36.5156 31.2575 36.7083V30.6048C23.5135 30.7866 17.2693 37.1368 17.2693 44.9241C17.2693 48.6901 18.7324 52.1185 21.1165 54.6789C23.5198 56.3708 26.3878 57.2776 29.3269 57.275C37.2268 57.275 43.6528 50.848 43.6528 42.9481Z" fill="white"/>
</svg>
